# xmcd
#
# Track frame offsets:
#	150
#	14120
#	26654
#	39690
#	51746
#	66281
#	80189
#	90825
#	101720
#	113804
#	127052
#	140278
#	155005
#	167410
#	184693
#	199192
#	213125
#
# Disc length: 3074 seconds
#
# Revision: 2
# Processed by: cddbd v1.5.1PL2 Copyright (c) Steve Scherf et al.
# Submitted via: EasyCDDAExtractor 9.0.0.1
#
DISCID=f60c0011
DTITLE=Dolly Parton - Legendary Dolly Parton [CD1]
DYEAR=2000
DGENRE=Country
TTITLE0=Coat Of Many Colors
TTITLE1=In The Good Old Days (When Times Were Bad)
TTITLE2=Higher And Higher
TTITLE3=Touch Your Woman
TTITLE4=We Used To
TTITLE5=My Tennessee Mountain Home
TTITLE6=Love Is Like A Butterfly
TTITLE7=All I Can Do
TTITLE8=Jolene
TTITLE9=I Will Always Love You
TTITLE10=Here You Come Again
TTITLE11=It's All Wrong, But It's All Right
TTITLE12=Elusive Butterfly
TTITLE13=Real Love
TTITLE14=But You Know I Love You
TTITLE15=Just Because I'm A Woman
TTITLE16=One Of These Days
EXTD=
EXTT0=
EXTT1=
EXTT2=
EXTT3=
EXTT4=
EXTT5=
EXTT6=
EXTT7=
EXTT8=
EXTT9=
EXTT10=
EXTT11=
EXTT12=
EXTT13=
EXTT14=
EXTT15=
EXTT16=
PLAYORDER=
